#!OML:ASF G:\JayActor3\Patient Classification 1\Patient 1\Session 2\male.ASF
:FULLY-SPECIFIED
:DEGREES
2792
root 49.3861 16.3487 -6.70533 -177.006 -75.3205 -181.549
lowerback 4.44559 0.619512 1.23156
upperback 3.60878 0.774155 0.0512929
thorax 1.23028 0.372761 -0.663543
lowerneck -8.6066 1.55723 -0.448092
upperneck 5.53942 2.24927 -1.57829
head 3.32194 1.03605 -0.313469
rclavicle -4.20678e-014 4.17448e-015
rhumerus -47.2795 3.71177 -85.7099
rradius 45.1061
rwrist -3.90623
rhand -24.2643 7.2091
rfingers 7.12502
rthumb 2.22215 -22.7591
lclavicle -4.20678e-014 4.17448e-015
lhumerus -36.7642 -27.4905 77.6521
lradius 51.4965
lwrist 17.8984
lhand -14.3423 19.7135
lfingers 7.12502
lthumb 11.799 49.3611
rfemur -18.8326 -10.5025 20.9178
rtibia 60.2302
rfoot -33.8875 -22.7576
rtoes 16.0097
lfemur -16.993 11.909 -23.6584
ltibia 34.3137
lfoot -19.4048 4.52038
ltoes -11.131
2793
root 49.3444 16.3544 -6.70497 -177.386 -75.9172 -181.315
lowerback 4.51241 0.587235 1.07755
upperback 3.57127 0.72925 0.0202692
thorax 1.15163 0.34779 -0.608558
lowerneck -8.47668 1.44101 -0.654227
upperneck 5.1496 2.09135 -1.31755
head 3.15463 0.968364 -0.202983
rclavicle -2.36305e-014 5.56597e-015
rhumerus -47.3692 3.91552 -85.7679
rradius 45.0978
rwrist -3.91604
rhand -24.2321 7.19886
rfingers 7.12502
rthumb 2.25322 -22.769
lclavicle -2.36305e-014 5.56597e-015
lhumerus -36.3742 -27.735 77.4775
lradius 52.2799
lwrist 17.9137
lhand -14.4162 19.6283
lfingers 7.12502
lthumb 11.7278 49.28
rfemur -19.6414 -10.7429 20.8976
rtibia 61.7918
rfoot -32.8439 -23.8012
rtoes 17.8335
lfemur -16.534 11.6832 -23.557
ltibia 34.0228
lfoot -19.4359 4.17763
ltoes -11.2954
2794
root 49.3019 16.3604 -6.70504 -177.815 -76.5078 -181.043
lowerback 4.59611 0.555564 0.926466
upperback 3.53708 0.684722 -0.00904531
thorax 1.06726 0.32303 -0.553487
lowerneck -8.36459 1.32239 -0.869138
upperneck 4.77228 1.93116 -1.03911
head 2.99697 0.899366 -0.0856417
rclavicle -4.31114e-014 -1.78906e-015
rhumerus -47.4564 4.11687 -85.8233
rradius 45.0942
rwrist -3.92172
rhand -24.1877 7.19465
rfingers 7.12502
rthumb 2.29608 -22.7727
lclavicle -4.31114e-014 -1.78906e-015
lhumerus -35.9817 -28.0041 77.3085
lradius 53.1062
lwrist 17.878
lhand -14.5016 19.5105
lfingers 7.12502
lthumb 11.6454 49.1669
rfemur -20.4448 -10.9861 20.8767
rtibia 63.3171
rfoot -31.637 -24.9343
rtoes 19.7691
lfemur -16.0544 11.4641 -23.4466
ltibia 33.7229
lfoot -19.5225 3.78221
ltoes -11.0488
2795
root 49.2585 16.3665 -6.70538 -178.279 -77.0917 -180.745
lowerback 4.69821 0.525052 0.779461
upperback 3.50439 0.641385 -0.0407156
thorax 0.974533 0.298972 -0.50317
lowerneck -8.26417 1.20264 -1.08608
upperneck 4.40114 1.7699 -0.747264
head 2.8457 0.829687 0.0359785
rclavicle 2.83765e-014 3.18055e-015
rhumerus -47.5481 4.31234 -85.8821
rradius 45.1009
rwrist -3.92796
rhand -24.1581 7.14802
rfingers 7.12502
rthumb 2.32471 -22.8191
lclavicle 2.83765e-014 3.18055e-015
lhumerus -35.5914 -28.3005 77.1439
lradius 53.9727
lwrist 17.8186
lhand -14.5603 19.3898
lfingers 7.12502
lthumb 11.5888 49.0494
rfemur -21.2304 -11.2195 20.8514
rtibia 64.7948
rfoot -30.2559 -26.0468
rtoes 21.8505
lfemur -15.556 11.2521 -23.3329
ltibia 33.4193
lfoot -19.6254 3.3794
ltoes -10.702
2796
root 49.2143 16.3723 -6.70591 -178.778 -77.6716 -180.42
lowerback 4.80478 0.498124 0.64323
upperback 3.48226 0.6023 -0.0793834
thorax 0.890675 0.277308 -0.466051
lowerneck -8.19323 1.07829 -1.29488
upperneck 4.03817 1.60259 -0.447807
head 2.70498 0.756715 0.158192
rclavicle -7.88305e-015 -5.76476e-015
rhumerus -47.6284 4.48595 -85.9453
rradius 45.1196
rwrist -3.9388
rhand -24.1402 7.06708
rfingers 7.12502
rthumb 2.34198 -22.8998
lclavicle -7.88305e-015 -5.76476e-015
lhumerus -35.1702 -28.6306 76.9686
lradius 54.8614
lwrist 17.7455
lhand -14.6148 19.2543
lfingers 7.12502
lthumb 11.5363 48.9168
rfemur -21.9931 -11.4463 20.821
rtibia 66.2128
rfoot -28.7002 -26.9925
rtoes 23.9733
lfemur -15.0468 11.0406 -23.2179
ltibia 33.1166
lfoot -19.739 2.99443
ltoes -10.3532
2797
root 49.1693 16.3775 -6.70679 -179.302 -78.2489 -180.072
lowerback 4.91033 0.473315 0.516143
upperback 3.46465 0.565747 -0.124153
thorax 0.812394 0.257182 -0.440243
lowerneck -8.1226 0.950813 -1.4975
upperneck 3.67386 1.43128 -0.146183
head 2.56604 0.681357 0.279505
rclavicle -1.18494e-014 -3.47873e-016
rhumerus -47.7127 4.64013 -86.0114
rradius 45.1534
rwrist -3.95832
rhand -24.1434 6.9512
rfingers 7.12502
rthumb 2.33884 -23.0157
lclavicle -1.18494e-014 -3.47873e-016
lhumerus -34.7254 -28.9815 76.7843
lradius 55.7711
lwrist 17.6967
lhand -14.6496 19.1349
lfingers 7.12502
lthumb 11.5027 48.7993
rfemur -22.7281 -11.6595 20.7843
rtibia 67.557
rfoot -26.9416 -27.5494
rtoes 26.0541
lfemur -14.535 10.8298 -23.1042
ltibia 32.8219
lfoot -19.8465 2.64215
ltoes -10.1245
2798
root 49.1234 16.3822 -6.70826 -179.844 -78.8209 -179.709
lowerback 4.99994 0.451498 0.393089
upperback 3.46114 0.53244 -0.175619
thorax 0.757779 0.238804 -0.423389
lowerneck -8.06772 0.820025 -1.69015
upperneck 3.31309 1.25569 0.157897
head 2.43338 0.603441 0.399591
rclavicle -4.26735e-014 -1.2424e-016
rhumerus -47.7826 4.77302 -86.0811
rradius 45.1968
rwrist -3.98694
rhand -24.1607 6.81612
rfingers 7.12502
rthumb 2.32214 -23.151
lclavicle -4.26735e-014 -1.2424e-016
lhumerus -34.2335 -29.3422 76.5785
lradius 56.6852
lwrist 17.6698
lhand -14.6723 19.0318
lfingers 7.12502
lthumb 11.4808 48.6974
rfemur -23.43 -11.8396 20.7392
rtibia 68.809
rfoot -24.9876 -27.6761
rtoes 27.6896
lfemur -14.0263 10.6203 -22.9928
ltibia 32.5418
lfoot -19.9422 2.32623
ltoes -10.0541
2799
root 49.0765 16.3859 -6.71056 -180.399 -79.3879 -179.328
lowerback 5.07204 0.434861 0.270737
upperback 3.46628 0.505495 -0.231155
thorax 0.722024 0.223669 -0.411128
lowerneck -8.02598 0.685947 -1.87983
upperneck 2.96304 1.07646 0.468429
head 2.30878 0.523279 0.521098
rclavicle 3.27125e-014 4.47266e-015
rhumerus -47.8481 4.88576 -86.1509
rradius 45.251
rwrist -4.02957
rhand -24.187 6.68015
rfingers 7.12502
rthumb 2.29674 -23.2872
lclavicle 3.27125e-014 4.47266e-015
lhumerus -33.6988 -29.7113 76.3617
lradius 57.5926
lwrist 17.6622
lhand -14.682 18.9379
lfingers 7.12502
lthumb 11.4714 48.6041
rfemur -24.1041 -11.9773 20.6887
rtibia 69.9507
rfoot -22.8555 -27.3397
rtoes 28.6698
lfemur -13.5253 10.4043 -22.8825
ltibia 32.2832
lfoot -20.0309 2.02394
ltoes -10.0479
2800
root 49.0289 16.3886 -6.71378 -180.991 -79.9496 -178.904
lowerback 5.12729 0.42174 0.146676
upperback 3.47849 0.482769 -0.285733
thorax 0.70299 0.210596 -0.396917
lowerneck -7.99644 0.549681 -2.06843
upperneck 2.6255 0.895389 0.782969
head 2.19254 0.441684 0.643769
rclavicle -2.11333e-014 -7.95139e-016
rhumerus -47.9042 4.97867 -86.2149
rradius 45.3074
rwrist -4.07489
rhand -24.2086 6.5612
rfingers 7.12502
rthumb 2.27587 -23.4064
lclavicle -2.11333e-014 -7.95139e-016
lhumerus -33.1261 -30.0758 76.1398
lradius 58.4874
lwrist 17.6713
lhand -14.6875 18.8735
lfingers 7.12502
lthumb 11.4661 48.5399
rfemur -24.7548 -12.0631 20.6436
rtibia 70.9674
rfoot -20.6398 -26.6047
rtoes 28.8828
lfemur -13.0405 10.1803 -22.7687
ltibia 32.0519
lfoot -20.1049 1.73561
ltoes -10.1487
2801
root 48.9803 16.3904 -6.7178 -181.635 -80.504 -178.42
lowerback 5.17185 0.411547 0.0209341
upperback 3.49109 0.463761 -0.336235
thorax 0.690358 0.199343 -0.377645
lowerneck -7.97759 0.412309 -2.26224
upperneck 2.30835 0.714476 1.10389
head 2.08686 0.359677 0.769695
rclavicle 3.23274e-014 4.37326e-015
rhumerus -47.9614 5.06441 -86.2736
rradius 45.3626
rwrist -4.12141
rhand -24.2334 6.46177
rfingers 7.12502
rthumb 2.25195 -23.5061
lclavicle 3.23274e-014 4.37326e-015
lhumerus -32.5332 -30.4284 75.9253
lradius 59.3664
lwrist 17.686
lhand -14.6913 18.8306
lfingers 7.12502
lthumb 11.4625 48.4973
rfemur -25.3863 -12.0993 20.6121
rtibia 71.8501
rfoot -18.4978 -25.593
rtoes 28.378
lfemur -12.5744 9.94275 -22.6503
ltibia 31.8516
lfoot -20.1915 1.43279
ltoes -10.1587
2802
root 48.9307 16.3911 -6.72248 -182.366 -81.047 -177.842
lowerback 5.22062 0.404114 -0.100103
upperback 3.49363 0.448728 -0.383707
thorax 0.665145 0.190243 -0.35812
lowerneck -7.96523 0.274217 -2.45954
upperneck 2.02314 0.534006 1.43112
head 1.99468 0.277486 0.898755
rclavicle -1.83876e-014 3.37934e-015
rhumerus -48.0321 5.14406 -86.332
rradius 45.4062
rwrist -4.15002
rhand -24.2637 6.40718
rfingers 7.12502
rthumb 2.22269 -23.561
lclavicle -1.83876e-014 3.37934e-015
lhumerus -31.9448 -30.7754 75.7267
lradius 60.2312
lwrist 17.702
lhand -14.7025 18.8144
lfingers 7.12502
lthumb 11.4516 48.4816
rfemur -26.0065 -12.0946 20.6085
rtibia 72.598
rfoot -16.5694 -24.4735
rtoes 27.3026
lfemur -12.1297 9.69011 -22.524
ltibia 31.6838
lfoot -20.295 1.12214
ltoes -10.0868
2803
root 48.88 16.3911 -6.72761 -183.192 -81.5748 -177.163
lowerback 5.28465 0.396245 -0.215087
upperback 3.48072 0.433452 -0.429104
thorax 0.615635 0.181287 -0.339967
lowerneck -7.95563 0.140352 -2.66077
upperneck 1.77542 0.360504 1.76339
head 1.91685 0.198418 1.03104
rclavicle 2.30342e-014 6.55989e-015
rhumerus -48.1193 5.22903 -86.3954
rradius 45.4282
rwrist -4.15819
rhand -24.3118 6.36879
rfingers 7.12502
rthumb 2.17626 -23.5999
lclavicle 2.30342e-014 6.55989e-015
lhumerus -31.3866 -31.1067 75.5505
lradius 61.0878
lwrist 17.7048
lhand -14.7226 18.8158
lfingers 7.12502
lthumb 11.4323 48.4841
rfemur -26.6158 -12.0605 20.6377
rtibia 73.2161
rfoot -14.9849 -23.3809
rtoes 25.9641
lfemur -11.7035 9.42774 -22.3929
ltibia 31.5449
lfoot -20.408 0.813103
ltoes -9.9858
2804
root 48.8283 16.3903 -6.73294 -184.146 -82.0823 -176.352
lowerback 5.34797 0.390411 -0.316488
upperback 3.46309 0.421337 -0.474386
thorax 0.561827 0.174237 -0.329437
lowerneck -7.94694 0.0093556 -2.86316
upperneck 1.55201 0.19174 2.09836
head 1.84858 0.121397 1.16522
rclavicle 1.05853e-014 -1.13307e-014
rhumerus -48.2025 5.31103 -86.4609
rradius 45.4162
rwrist -4.13965
rhand -24.3608 6.38863
rfingers 7.12502
rthumb 2.12893 -23.5805
lclavicle 1.05853e-014 -1.13307e-014
lhumerus -30.8465 -31.4267 75.3888
lradius 61.9367
lwrist 17.6899
lhand -14.7645 18.8124
lfingers 7.12502
lthumb 11.3919 48.4829
rfemur -27.2165 -12.0065 20.7082
rtibia 73.7108
rfoot -13.8018 -22.4665
rtoes 24.5086
lfemur -11.2931 9.15656 -22.2563
ltibia 31.4295
lfoot -20.5331 0.533362
ltoes -9.92045
2805
root 48.7755 16.3891 -6.73839 -185.216 -82.5662 -175.42
lowerback 5.41486 0.383178 -0.410504
upperback 3.43942 0.407534 -0.519391
thorax 0.49991 0.166572 -0.322695
lowerneck -7.94618 -0.114189 -3.06068
upperneck 1.35498 0.0337122 2.42386
head 1.79137 0.0492291 1.29673
rclavicle -2.55438e-014 1.63003e-014
rhumerus -48.2776 5.40439 -86.5332
rradius 45.3733
rwrist -4.09589
rhand -24.4017 6.43933
rfingers 7.12502
rthumb 2.0894 -23.5302
lclavicle -2.55438e-014 1.63003e-014
lhumerus -30.3424 -31.724 75.2427
lradius 62.7901
lwrist 17.6542
lhand -14.8273 18.8058
lfingers 7.12502
lthumb 11.3313 48.4797
rfemur -27.8109 -11.9355 20.8165
rtibia 74.0901
rfoot -13.0562 -21.6982
rtoes 23.2065
lfemur -10.8958 8.88089 -22.1198
ltibia 31.3296
lfoot -20.6674 0.288521
ltoes -9.90809
2806
root 48.7216 16.3874 -6.74391 -186.395 -83.0237 -174.375
lowerback 5.4847 0.376444 -0.495642
upperback 3.41309 0.394521 -0.566553
thorax 0.43374 0.159519 -0.323175
lowerneck -7.95701 -0.232907 -3.25129
upperneck 1.18312 -0.117268 2.73757
head 1.74534 -0.0198692 1.42434
rclavicle 1.04859e-014 -1.03368e-014
rhumerus -48.3397 5.50017 -86.6085
rradius 45.3055
rwrist -4.03256
rhand -24.4052 6.5252
rfingers 7.12502
rthumb 2.08607 -23.4443
lclavicle 1.04859e-014 -1.03368e-014
lhumerus -29.8734 -32.0052 75.1097
lradius 63.6519
lwrist 17.5968
lhand -14.9126 18.786
lfingers 7.12502
lthumb 11.2491 48.4644
rfemur -28.3923 -11.8384 20.9543
rtibia 74.3554
rfoot -12.6925 -21.1086
rtoes 21.9789
lfemur -10.5061 8.60637 -21.9865
ltibia 31.2386
lfoot -20.8114 0.0826035
ltoes -9.97853
